# xmcd CD database file
#
# Track frame offsets:
#	183
#	16220
#	27978
#	42310
#	52858
#	67708
#	82665
#	95603
#	109938
#	125885
#
# Disc length: 1821 seconds
#
# Revision: 4
# Processed by: cddbd v1.4PL0 Copyright (c) Steve Scherf et al.
# Submitted via: CDex 1.40Release
#
DISCID=75071b0a
DTITLE=Johnny Cash - The Mystery of Life
DYEAR=1991
DGENRE=Country
TTITLE0=The Greatest Cowboy of Them All
TTITLE1=I'm an Easy Rider
TTITLE2=The Mystery of Life
TTITLE3=Hey Porter
TTITLE4=Beans for Breakfast
TTITLE5=Goin' by the Book
TTITLE6=Wanted Man
TTITLE7=I'll Go Somewhere and Sing My Songs Again
TTITLE8=The Hobo Song
TTITLE9=Angel and the Badman
EXTD=YEAR: 1991 ID3G: 2
EXTT0=
EXTT1=
EXTT2=
EXTT3=
EXTT4=
EXTT5=
EXTT6=
EXTT7=
EXTT8=
EXTT9=
PLAYORDER=
